<svg xmlns="http://www.w3.org/2000/svg" viewBox="0 0 500 500"><g id="freepik--background-complete--inject-66"><rect x="416.78" y="398.49" width="33.12" height="0.25" style="fill:#ebebeb"></rect><rect x="322.53" y="401.21" width="8.69" height="0.25" style="fill:#ebebeb"></rect><rect x="396.59" y="389.21" width="19.19" height="0.25" style="fill:#ebebeb"></rect><rect x="52.46" y="390.89" width="43.19" height="0.25" style="fill:#ebebeb"></rect><rect x="104.56" y="390.89" width="6.33" height="0.25" style="fill:#ebebeb"></rect><rect x="131.47" y="395.11" width="93.68" height="0.25" style="fill:#ebebeb"></rect><path d="M237,337.8H43.92a5.71,5.71,0,0,1-5.71-5.71V60.66A5.71,5.71,0,0,1,43.92,55H237a5.71,5.71,0,0,1,5.71,5.71V332.09A5.71,5.71,0,0,1,237,337.8ZM43.92,55.2a5.47,5.47,0,0,0-5.46,5.46V332.09a5.47,5.47,0,0,0,5.46,5.46H237a5.47,5.47,0,0,0,5.46-5.46V60.66A5.47,5.47,0,0,0,237,55.2Z" style="fill:#ebebeb"></path><path d="M453.31,337.8H260.21a5.72,5.72,0,0,1-5.71-5.71V60.66A5.72,5.72,0,0,1,260.21,55h193.1A5.71,5.71,0,0,1,459,60.66V332.09A5.71,5.71,0,0,1,453.31,337.8ZM260.21,55.2a5.47,5.47,0,0,0-5.46,5.46V332.09a5.47,5.47,0,0,0,5.46,5.46h193.1a5.47,5.47,0,0,0,5.46-5.46V60.66a5.47,5.47,0,0,0-5.46-5.46Z" style="fill:#ebebeb"></path><rect y="382.4" width="500" height="0.25" style="fill:#ebebeb"></rect><rect x="140.18" y="74.49" width="19.19" height="41.96" style="fill:#e6e6e6"></rect><rect x="140.18" y="222.46" width="19.19" height="41.96" style="fill:#ebebeb"></rect><rect x="103.19" y="84.41" width="19.19" height="41.96" transform="translate(-37.58 70.51) rotate(-30)" style="fill:#e6e6e6"></rect><rect x="177.17" y="212.55" width="19.19" height="41.96" transform="translate(-91.74 124.67) rotate(-30)" style="fill:#ebebeb"></rect><rect x="76.11" y="111.49" width="19.19" height="41.96" transform="translate(-71.86 140.45) rotate(-60)" style="fill:#ebebeb"></rect><rect x="204.25" y="185.47" width="19.19" height="41.96" transform="translate(-71.86 288.42) rotate(-60)" style="fill:#ebebeb"></rect><rect x="66.2" y="148.48" width="19.19" height="41.96" transform="translate(-93.66 245.25) rotate(-90)" style="fill:#f0f0f0"></rect><rect x="214.17" y="148.48" width="19.19" height="41.96" transform="translate(54.3 393.22) rotate(-90)" style="fill:#e0e0e0"></rect><rect x="76.11" y="185.47" width="19.19" height="41.96" transform="translate(-50.23 383.9) rotate(-120)" style="fill:#ebebeb"></rect><rect x="204.25" y="111.49" width="19.19" height="41.96" transform="matrix(-0.5, -0.87, 0.87, -0.5, 206.06, 383.9)" style="fill:#e6e6e6"></rect><rect x="103.19" y="212.55" width="19.19" height="41.96" transform="translate(93.7 492.16) rotate(-150)" style="fill:#ebebeb"></rect><rect x="177.17" y="84.41" width="19.19" height="41.96" transform="matrix(-0.87, -0.5, 0.5, -0.87, 295.82, 290.04)" style="fill:#e6e6e6"></rect><path d="M436.75,294.14H434.1a4.78,4.78,0,0,1-.06-.53q-.44-3.6-.81-7.22c-.38-3.57-.69-7.15-1-10.75v-.14c-.12-1.3-.21-2.61-.3-3.92-.06-.77-.11-1.54-.15-2.32,0-.29,0-.58-.05-.87l1.25-.1,1.05-.09.3,0c0,.36,0,.72.08,1.08.05.78.09,1.55.14,2.32.09,1.31.2,2.62.29,3.92,0,.05,0,.09,0,.14q.42,5.4,1,10.75c.21,2,.43,4.05.68,6.06C436.6,293,436.68,293.58,436.75,294.14Z" style="fill:#e0e0e0"></path><path d="M425.55,294.14c0-.17,0-.35-.05-.53-.28-2.4-.55-4.81-.78-7.22,0-.26-.06-.52-.08-.78-.33-3.31-.62-6.64-.87-10v-.14c-.11-1.3-.2-2.61-.29-3.92,0-.77-.1-1.55-.15-2.32,0-.55-.06-1.11-.1-1.66l2.57-.22h0c0,.63.07,1.25.11,1.88l.15,2.32c.1,1.31.19,2.61.28,3.92,0,0,0,.09,0,.14q.33,4.37.75,8.72c.05.42.09.83.13,1.25,0,.26,0,.52.07.78.24,2.41.5,4.81.79,7.22,0,.18.05.35.07.53Z" style="fill:#e0e0e0"></path><path d="M436.54,275.5v-6.24H399.92v1.38a4.91,4.91,0,0,0,.09.94,5,5,0,0,0,3.74,3.92,5.06,5.06,0,0,0,1.17.14h31.62Z" style="fill:#e0e0e0"></path><polygon points="436.55 209.97 436.55 269.26 434 269.26 434.06 268.2 434.11 266.94 436.55 209.97" style="fill:#ebebeb"></polygon><polygon points="420.08 208.34 423.28 208.34 425.89 269.26 421.83 269.26 420.08 208.34" style="fill:#ebebeb"></polygon><polygon points="398.76 208.34 401.95 208.34 405.44 269.26 401.38 269.26 398.76 208.34" style="fill:#ebebeb"></polygon><rect x="397.31" y="266.94" width="35.68" height="4.64" transform="translate(830.3 538.52) rotate(180)" style="fill:#e0e0e0"></rect><polygon points="436.55 269.26 436.55 266.94 434.11 266.94 433 266.94 433 268.29 433 269.26 433 271.58 434.57 271.58 436.55 271.58 436.55 269.26" style="fill:#ebebeb"></polygon><polygon points="336.11 289.57 335.95 293.61 335.94 294.14 328.89 294.14 328.89 289.57 336.11 289.57" style="fill:#ebebeb"></polygon><polygon points="336.11 289.57 335.95 293.61 335.94 294.14 328.89 294.14 328.89 289.57 336.11 289.57" style="fill:#e0e0e0;opacity:0.2"></polygon><polygon points="317.81 289.57 317.65 293.61 317.63 294.14 310.6 294.14 310.6 289.57 317.81 289.57" style="fill:#ebebeb"></polygon><polygon points="317.81 289.57 317.65 293.61 317.64 294.14 310.6 294.14 310.6 289.57 317.81 289.57" style="fill:#e0e0e0;opacity:0.2"></polygon><path d="M436.54,275.5h-126l-.28.09c-.38.12-.75.26-1.12.41a16.6,16.6,0,0,0-5.06,3.23l-.24.24a15.92,15.92,0,0,0-1.56,1.74,15,15,0,0,0-1.18,1.72h0a16.39,16.39,0,0,0-1.29,2.67,8.11,8.11,0,0,0-.28.78c-.08.24-.15.48-.22.72l-.09.35c-.07.27-.13.54-.19.81s-.09.43-.12.64-.07.43-.09.64,0,.29-.05.43a14.46,14.46,0,0,0-.07,1.47c0,.11,0,.23,0,.34a1.93,1.93,0,0,0,0,.34c0,.2,0,.41,0,.61s.06.58.1.87l.09.53H436.74c-.07-.56-.14-1.12-.2-1.69V275.5Z" style="fill:#ebebeb"></path><path d="M436.75,294.14H299c0-.18-.06-.35-.1-.53s-.08-.58-.1-.87,0-.41,0-.61a1.94,1.94,0,0,1,0-.34v-.34q0-.74.06-1.47c0-.14,0-.29.05-.43s.07-.43.09-.64.07-.42.12-.64.13-.54.2-.81a3.59,3.59,0,0,1,.08-.35c.08-.24.15-.48.22-.72h137v6.06C436.6,293,436.68,293.58,436.75,294.14Z" style="fill:#fafafa;opacity:0.4"></path><rect x="331.59" y="275.5" width="7.76" height="18.64" style="fill:#fff;opacity:0.4"></rect><rect x="360.86" y="275.5" width="7.75" height="18.64" style="fill:#fff;opacity:0.4"></rect><path d="M310.09,275.68v18.46h-7.76V281.21a15.92,15.92,0,0,1,1.56-1.74l.24-.21a16,16,0,0,1,5.14-3.26C309.54,275.88,309.81,275.78,310.09,275.68Z" style="fill:#fff;opacity:0.4"></path><rect x="419.38" y="275.5" width="7.76" height="18.64" style="fill:#fff;opacity:0.4"></rect><rect x="390.12" y="275.5" width="7.76" height="18.64" style="fill:#fff;opacity:0.4"></rect><path d="M293.73,271l2.59.18c0,.27,0,.53-.05.8-.08,1.1-.18,2.2-.27,3.29-.27,3.47-.61,6.93-1,10.38q-.4,4-.93,8h-2.61c.32-2.66.64-5.33.91-8q.76-6.81,1.25-13.67c0-.17,0-.34.05-.52S293.72,271.11,293.73,271Z" style="fill:#e0e0e0"></path><path d="M302.25,270.15l2.59.19c0,.53-.07,1.07-.11,1.6-.1,1.36-.19,2.71-.32,4.06-.08,1.08-.18,2.16-.28,3.23v0c-.18,2.12-.4,4.24-.63,6.35,0,.26-.05.52-.07.78-.27,2.41-.55,4.82-.86,7.22a3.35,3.35,0,0,1-.07.53h-2.64c0-.17.05-.35.08-.53.31-2.4.58-4.81.85-7.22,0-.26,0-.52.08-.78.11-.89.19-1.78.27-2.67h0q.35-3.45.64-6.93c.11-1.35.23-2.7.32-4.06C302.16,271.34,302.2,270.75,302.25,270.15Z" style="fill:#e0e0e0"></path><path d="M308.4,294.14c0-.18.05-.36.08-.53.29-2.4.57-4.81.82-7.22,0-.26.06-.52.08-.78q.39-3.71.71-7.41c.06-.73.14-1.47.18-2.2,0-.14,0-.27,0-.41.1-1.21.19-2.43.27-3.65.06-.77.12-1.55.17-2.32a1.23,1.23,0,0,1,0-.27l2.6.2v.07c-.05.77-.1,1.55-.17,2.32-.08,1.19-.16,2.38-.25,3.56,0,.17,0,.33-.05.5q-.39,4.81-.88,9.61c0,.26,0,.52-.08.78l-.36,3.18c-.14,1.34-.31,2.69-.48,4l-.06.53Z" style="fill:#e0e0e0"></path><path d="M320.65,268.65l1.24.1-.06.87c0,.78-.08,1.55-.14,2.32-.09,1.19-.17,2.38-.25,3.56a4.45,4.45,0,0,0-.05.5c-.25,3.21-.54,6.42-.87,9.61,0,.26,0,.52-.07.78-.25,2.41-.51,4.82-.81,7.22l-.06.53H317c0-.18,0-.35.05-.53.18-1.35.32-2.69.48-4l.33-3.18c0-.26.06-.52.08-.78.34-3.2.61-6.4.86-9.61a4.21,4.21,0,0,0,0-.5c.1-1.18.19-2.37.26-3.56.06-.77.11-1.54.17-2.32,0-.36,0-.72.07-1.08l.29,0Z" style="fill:#e0e0e0"></path><path d="M330.4,268c0,.55-.06,1.11-.1,1.66-.05.77-.08,1.55-.15,2.32-.08,1.19-.15,2.38-.25,3.56,0,.17,0,.34,0,.5-.24,3.21-.52,6.42-.82,9.61,0,.26-.06.52-.09.78-.22,2.41-.48,4.82-.76,7.22,0,.18-.05.35-.07.53H325.5c0-.17,0-.35.05-.53q.42-3.6.78-7.22c0-.26.05-.52.07-.78.33-3.2.6-6.4.85-9.61a4,4,0,0,1,0-.5c.08-1.19.16-2.37.25-3.56,0-.77.09-1.55.15-2.32s.06-1.25.1-1.88h0Z" style="fill:#e0e0e0"></path><path d="M293.67,269.62h60a0,0,0,0,1,0,0V271a5,5,0,0,1-5,5H298.66a5,5,0,0,1-5-5v-1.38A0,0,0,0,1,293.67,269.62Z" style="fill:#e0e0e0"></path><polygon points="295.7 208.7 292.51 208.7 295.12 269.62 299.18 269.62 295.7 208.7" style="fill:#ebebeb"></polygon><polygon points="317.02 208.7 313.83 208.7 315.57 269.62 319.63 269.62 317.02 208.7" style="fill:#ebebeb"></polygon><polygon points="333.56 208.7 330.37 208.7 327.75 269.62 331.82 269.62 333.56 208.7" style="fill:#ebebeb"></polygon><polygon points="354.88 208.7 351.69 208.7 348.21 269.62 352.27 269.62 354.88 208.7" style="fill:#ebebeb"></polygon><rect x="320.65" y="267.3" width="35.68" height="4.64" style="fill:#e0e0e0"></rect><rect x="291.05" y="267.3" width="29.6" height="4.64" style="fill:#ebebeb"></rect><rect x="389.35" y="322.62" width="46.4" height="17.21" rx="7.22" style="fill:#f0f0f0"></rect><rect x="286.16" y="322.62" width="46.4" height="17.21" rx="7.22" style="fill:#f0f0f0"></rect><rect x="338.61" y="322.62" width="46.4" height="17.21" rx="7.22" style="fill:#e6e6e6"></rect><rect x="363.98" y="344.08" width="46.4" height="17.21" rx="7.22" style="fill:#ebebeb"></rect><rect x="313.24" y="344.08" width="46.4" height="17.21" rx="7.22" style="fill:#f0f0f0"></rect></g><g id="freepik--Shadow--inject-66"><ellipse id="freepik--path--inject-66" cx="247.03" cy="406.43" rx="193.89" ry="11.32" style="fill:#f5f5f5"></ellipse></g><g id="freepik--Door--inject-66"><path d="M144.61,94.11h8.77a76.49,76.49,0,0,1,76.49,76.49V382.24a0,0,0,0,1,0,0H68.11a0,0,0,0,1,0,0V170.6a76.5,76.5,0,0,1,76.5-76.5Z" style="fill:#000000"></path><g style="opacity:0.30000000000000004"><path d="M144.61,94.11h8.77a76.49,76.49,0,0,1,76.49,76.49V382.24a0,0,0,0,1,0,0H68.11a0,0,0,0,1,0,0V170.6a76.5,76.5,0,0,1,76.5-76.5Z" style="fill:#fff"></path></g><path d="M149,94.11,71.75,223.29v35.42l96.49-159.3S166.29,92.25,149,94.11Z" style="fill:#fff;opacity:0.1"></path><path d="M207.64,131.76,74.6,347.17v35.42L220.47,147.42S217.83,131.62,207.64,131.76Z" style="fill:#fff;opacity:0.1"></path><path d="M229.87,172.19V382.25H221V170.4a71,71,0,0,0-71-71h-2.64a71,71,0,0,0-70.95,71V382.25H68.11V172.19a80.88,80.88,0,0,1,161.76,0Z" style="fill:#000000"></path><path d="M229.87,172.19V382.25H221V170.4a71,71,0,0,0-71-71h-2.64a71,71,0,0,0-70.95,71V382.25H68.11V172.19a80.88,80.88,0,0,1,161.76,0Z" style="opacity:0.2"></path><rect x="76.43" y="371.85" width="144.5" height="10.2" style="opacity:0.2"></rect><rect x="87.13" y="241.66" width="8.16" height="33.05" style="opacity:0.30000000000000004"></rect><rect x="85.09" y="239.62" width="8.16" height="33.05" style="fill:#fff"></rect><rect x="76.43" y="201.91" width="144.57" height="15.29" style="fill:#fff;opacity:0.8"></rect></g><g id="freepik--Sign--inject-66"><rect x="121" y="221.4" width="67.82" height="42.91" rx="3.88" style="fill:#263238"></rect><rect x="121" y="218.21" width="67.82" height="42.91" rx="3.88" style="fill:#000000"></rect><polygon points="178.63 219.04 154.2 203.45 130.43 219.04 129.88 218.2 154.19 202.25 179.17 218.2 178.63 219.04" style="fill:#000000"></polygon></g><g id="freepik--Text--inject-66"><path d="M127.33,242a5,5,0,0,1,8.74-3.11l-1.36,1.25a3,3,0,0,0-2.3-1.07,2.93,2.93,0,0,0,0,5.86,2.91,2.91,0,0,0,2.3-1.08l1.36,1.25a5,5,0,0,1-8.74-3.1Z" style="fill:#e6e6e6"></path><path d="M137.5,237.39h2.12v7.44h4.59v1.72H137.5Z" style="fill:#e6e6e6"></path><path d="M144.67,242a5,5,0,1,1,5,4.74A4.74,4.74,0,0,1,144.67,242Zm7.88,0a2.87,2.87,0,1,0-2.87,2.93A2.79,2.79,0,0,0,152.55,242Z" style="fill:#e6e6e6"></path><path d="M155.57,245.65l.72-1.6a5.32,5.32,0,0,0,3,1c1.26,0,1.77-.42,1.77-1,0-1.72-5.33-.54-5.33-3.94,0-1.56,1.26-2.86,3.86-2.86a6.21,6.21,0,0,1,3.18.81l-.65,1.61a5.23,5.23,0,0,0-2.54-.72c-1.26,0-1.74.48-1.74,1,0,1.69,5.33.52,5.33,3.89,0,1.53-1.27,2.84-3.89,2.84A6.52,6.52,0,0,1,155.57,245.65Z" style="fill:#e6e6e6"></path><path d="M171.73,244.85v1.7h-7.09v-9.16h6.92v1.7h-4.82v2H171v1.65h-4.26v2.12Z" style="fill:#e6e6e6"></path><path d="M173.42,237.39h4.16c3,0,5,1.81,5,4.58s-2,4.58-5,4.58h-4.16Zm4.05,7.42a2.85,2.85,0,1,0,0-5.68h-1.93v5.68Z" style="fill:#e6e6e6"></path><path d="M127,230.24l.42-.93a3.16,3.16,0,0,0,1.77.56c.73,0,1-.24,1-.57,0-1-3.11-.31-3.11-2.3,0-.91.73-1.66,2.25-1.66a3.65,3.65,0,0,1,1.86.47l-.39.94a3,3,0,0,0-1.48-.42c-.73,0-1,.27-1,.61,0,1,3.1.31,3.1,2.27,0,.89-.74,1.65-2.26,1.65A3.81,3.81,0,0,1,127,230.24Z" style="fill:#e6e6e6"></path><path d="M132,228.1a2.92,2.92,0,1,1,2.92,2.76A2.76,2.76,0,0,1,132,228.1Zm4.59,0a1.67,1.67,0,1,0-1.67,1.71A1.63,1.63,0,0,0,136.54,228.1Z" style="fill:#e6e6e6"></path><path d="M142.13,230.77l-1-1.49H140v1.49h-1.23v-5.34H141c1.42,0,2.32.74,2.32,1.94a1.73,1.73,0,0,1-1.1,1.68l1.2,1.72ZM141,226.44h-1v1.86h1c.75,0,1.14-.35,1.14-.93S141.72,226.44,141,226.44Z" style="fill:#e6e6e6"></path><path d="M147.74,230.77l-1-1.49h-1.14v1.49h-1.23v-5.34h2.31c1.43,0,2.32.74,2.32,1.94a1.73,1.73,0,0,1-1.1,1.68l1.2,1.72Zm-1.16-4.33h-1v1.86h1c.76,0,1.14-.35,1.14-.93S147.34,226.44,146.58,226.44Z" style="fill:#e6e6e6"></path><path d="M152.43,228.88v1.89H151.2v-1.91l-2.07-3.43h1.31l1.43,2.37,1.43-2.37h1.21Z" style="fill:#e6e6e6"></path><path d="M165.26,225.43l-1.74,5.34h-1.33L161,227.15l-1.21,3.62h-1.32l-1.75-5.34H158l1.2,3.75,1.26-3.75h1.15l1.22,3.78,1.24-3.78Z" style="fill:#e6e6e6"></path><path d="M170.09,229.78v1H166v-5.34h4v1h-2.81v1.16h2.48v1h-2.48v1.24Z" style="fill:#e6e6e6"></path><path d="M172.18,225.78a1.81,1.81,0,0,1-.2.76l-.44,1.1h-.75l.32-1.2a.69.69,0,0,1-.4-.66.71.71,0,0,1,.74-.73A.7.7,0,0,1,172.18,225.78Z" style="fill:#e6e6e6"></path><path d="M176.48,230.77l-1-1.49h-1.14v1.49h-1.23v-5.34h2.31c1.42,0,2.32.74,2.32,1.94a1.73,1.73,0,0,1-1.1,1.68l1.2,1.72Zm-1.16-4.33h-1v1.86h1c.75,0,1.14-.35,1.14-.93S176.07,226.44,175.32,226.44Z" style="fill:#e6e6e6"></path><path d="M182.82,229.78v1h-4.13v-5.34h4v1h-2.81v1.16h2.48v1h-2.48v1.24Z" style="fill:#e6e6e6"></path><path d="M127.27,254v-1.84H128V254c0,.62.27.88.73.88s.73-.26.73-.88v-1.81h.75V254a1.49,1.49,0,1,1-3,0Z" style="fill:#e6e6e6"></path><path d="M134,252.19v3.28h-.62l-1.64-2v2H131v-3.28h.63l1.63,2v-2Z" style="fill:#e6e6e6"></path><path d="M135.45,252.81h-1v-.62h2.85v.62h-1v2.66h-.76Z" style="fill:#e6e6e6"></path><path d="M137.66,252.19h.76v3.28h-.76Z" style="fill:#e6e6e6"></path><path d="M139.2,252.19H140v2.66h1.65v.62h-2.4Z" style="fill:#e6e6e6"></path><path d="M145.89,254.86v.61h-2.54v-3.28h2.48v.61H144.1v.71h1.53v.59H144.1v.76Z" style="fill:#e6e6e6"></path><path d="M149.5,252.19v3.28h-.63l-1.63-2v2h-.75v-3.28h.63l1.63,2v-2Z" style="fill:#e6e6e6"></path><path d="M150.27,252.19h1.49a1.65,1.65,0,1,1,0,3.28h-1.49Zm1.46,2.66a1,1,0,1,0,0-2H151v2Z" style="fill:#e6e6e6"></path><path d="M155.26,253.83a1.8,1.8,0,1,1,1.79,1.7A1.69,1.69,0,0,1,155.26,253.83Zm2.82,0a1,1,0,1,0-1,1A1,1,0,0,0,158.08,253.83Z" style="fill:#e6e6e6"></path><path d="M159.39,254v-1.84h.76V254c0,.62.27.88.73.88s.73-.26.73-.88v-1.81h.75V254a1.49,1.49,0,1,1-3,0Z" style="fill:#e6e6e6"></path><path d="M163.73,252.81h-1v-.62h2.86v.62h-1v2.66h-.76Z" style="fill:#e6e6e6"></path><path d="M169,254.58c0,.56-.45.89-1.31.89h-1.7v-3.28h1.61c.82,0,1.24.34,1.24.85a.81.81,0,0,1-.44.73A.79.79,0,0,1,169,254.58Zm-2.25-1.82v.78h.75c.37,0,.57-.13.57-.39s-.2-.39-.57-.39Zm1.49,1.74c0-.28-.21-.41-.61-.41h-.88v.81h.88C168,254.9,168.19,254.78,168.19,254.5Z" style="fill:#e6e6e6"></path><path d="M171.61,255.47l-.63-.91h-.7v.91h-.75v-3.28h1.41c.88,0,1.43.46,1.43,1.19a1.08,1.08,0,0,1-.68,1l.74,1.05Zm-.71-2.66h-.62V254h.62c.47,0,.7-.21.7-.57S171.37,252.81,170.9,252.81Z" style="fill:#e6e6e6"></path><path d="M175.51,254.86v.61H173v-3.28h2.47v.61h-1.72v.71h1.52v.59h-1.52v.76Z" style="fill:#e6e6e6"></path><path d="M178.27,254.77h-1.52l-.3.7h-.77l1.46-3.28h.75l1.46,3.28h-.79Zm-.24-.58-.52-1.25-.52,1.25Z" style="fill:#e6e6e6"></path><path d="M180.89,254.18l-.44.46v.83h-.76v-3.28h.76v1.53l1.45-1.53h.84l-1.35,1.46,1.43,1.82h-.88Z" style="fill:#e6e6e6"></path></g><g id="freepik--Character--inject-66"><circle cx="226.17" cy="219.48" r="1.17" style="fill:#fff"></circle><path d="M212.79,166.88a8.85,8.85,0,0,1-3.13,7.68c-.65.54-1.38,1-2,1.55h0a2,2,0,0,0,.22,3,5.31,5.31,0,0,1,1.69,2.52,5.38,5.38,0,0,1-.61,4.39c-1.15,1.78-2.92,2.84-4,4.63a1,1,0,0,0,.55,1.38c.46.15,1,.18,1.32.54a1.59,1.59,0,0,1,.12,1.56,6.82,6.82,0,0,1-3.91,4.19,14.1,14.1,0,0,1-3.59,1A4,4,0,0,0,202,194.5a8.67,8.67,0,0,0-1.46-2.39,5,5,0,0,1-1.26-2.84,2.3,2.3,0,0,1,1.26-2,3.23,3.23,0,0,0,.79-4.61,16.57,16.57,0,0,1-1.53-1.61c-.81-1.32-.1-3,.62-4.4q1.35-2.62,2.72-5.25a13.73,13.73,0,0,1,3-4.37,4.66,4.66,0,0,1,5-.89C211.7,165.93,212.37,166.41,212.79,166.88Z" style="fill:#263238"></path><path d="M187.55,211.16s-17.33-6.85-18.72-6.72c-2.11.2-3.26,2.48-4,4.46,0,0,17,9.2,24,10.19,5.29.75,19.79-4.57,23.87-6.91a11.78,11.78,0,0,0,4.94-4.72c1-2.07,0-5.05-1.54-6.74-3.57-3.85-7.52.82-10.13,2.93C201.93,206.92,192.72,211.79,187.55,211.16Z" style="fill:#263238"></path><path d="M169.77,205s-5.46-6-5.7-5.6-4.24,6.69-3.85,6.93l6.19,3.62S170.05,209.38,169.77,205Z" style="fill:#ffb573"></path><polygon points="160.22 206.37 164.07 199.44 156.7 199.34 155.57 204.25 160.22 206.37" style="fill:#ffb573"></polygon><path d="M215.7,399.77c3.08,2,5,2,6.91-1.48,2.68-22.34,4.35-49.45,1-61.91-2.11-7.75-13.51-12.64-12.24,4.55C212.06,350.68,215.6,391.68,215.7,399.77Z" style="fill:#ffb573"></path><path d="M211.3,337.8c1,2.72,6.73,4.53,10,1.78,10.27-8.7,17.67-50.51,20.86-62.1.89-3.24,1.79-6.7.79-9.91-1.26-4.05-5.21-6.67-9.19-8.13-4.95-1.81-13.9-10.73-13.9-10.73C213.87,266.42,208.17,329.06,211.3,337.8Z" style="fill:#000000"></path><path d="M211.3,337.8c1,2.72,6.73,4.53,10,1.78,10.27-8.7,17.67-50.51,20.86-62.1.89-3.24,1.79-6.7.79-9.91-1.26-4.05-5.21-6.67-9.19-8.13-4.95-1.81-13.9-10.73-13.9-10.73C213.87,266.42,208.17,329.06,211.3,337.8Z" style="fill:#000000"></path><path d="M211.3,337.8c1,2.72,6.73,4.53,10,1.78,10.27-8.7,17.67-50.51,20.86-62.1.89-3.24,1.79-6.7.79-9.91-1.26-4.05-5.21-6.67-9.19-8.13-4.95-1.81-13.9-10.73-13.9-10.73C213.87,266.42,208.17,329.06,211.3,337.8Z" style="opacity:0.6000000000000001"></path><path d="M244.56,290H251l-3.56-24.79c-3.28-5-27.16-4.48-24.22-.61C231.35,275.37,236.36,284.18,244.56,290Z" style="opacity:0.2"></path><path d="M238,277.81c4.14-9.68,11.14-10.8,21.55-12.38.22-9.16-8.73-18.05-13.82-21.55h-25.9C213.42,263.54,222.39,269.55,238,277.81Z" style="fill:#000000"></path><path d="M247,248.33l-3.22.75a52.56,52.56,0,0,1-11.84,1.34,53.55,53.55,0,0,1-10.55-1.06s-8.95-12.09-11.2-15.77a32.19,32.19,0,0,1-4.08-8.53c-1.76-6.94-.66-18.67,3.77-24.18,2.9-3.64,10-5.08,19.86-1.37.58.22,1.19.47,1.8.73a58,58,0,0,1,6.06,3.09C248.17,209.53,247,248.33,247,248.33Z" style="fill:#263238"></path><path d="M217.56,197.4a20.44,20.44,0,0,0-6.71,20.22,5.35,5.35,0,0,0,1.13,1.86l1.37-1.75a19.2,19.2,0,0,1,3.38-17,43.35,43.35,0,0,1,3.62-3.55A2.31,2.31,0,0,0,217.56,197.4Z" style="fill:#000000"></path><path d="M231.09,200.77a19.23,19.23,0,0,0-3.38,17c-.44.58-.93,1.17-1.37,1.76a5.67,5.67,0,0,1-1.14-1.87,20.63,20.63,0,0,1,4.53-18.11c.58.22,1.19.47,1.8.73C231.38,200.41,231.24,200.59,231.09,200.77Z" style="fill:#000000"></path><path d="M208.4,206.89c4,.24,5.9,3.29,6.84,7.17,7.15-5.46,11.74-7.72,17.92-8-1.36-2.57-2.77-5.22-5-7.07C221,193,211.87,200.5,208.4,206.89Z" style="fill:#fff"></path><path d="M214,168.4c-1.81-1.94-2.23-3.65-.15-5.29,0,0,2.35-1.38,4.22-1a8.42,8.42,0,0,1,3.84,1.51,29.35,29.35,0,0,1,8.19,3,12.35,12.35,0,0,1,5.43,6.43c.34,1,.41,2.34-.44,3,5.41,3.33,2.93,8.27,2.51,9.15-.95,2-3.68,2.37-5.34,3.87-2.61,2.35-.55,6.56.87,7.16-8.61,1.78-10.77,1.39-15.21,0-5.73-.9-6-10.72-4.3-15.19.93-2.47,2.84-4.69,2.78-7.32A7.92,7.92,0,0,0,214,168.4Z" style="fill:#263238"></path><path d="M224.85,185.61c-.26,3.16-.31,8.12.86,11.7a6.67,6.67,0,0,1-2.19,7.44c-1,.73-2.07,1.53-3.34,2.37a4.15,4.15,0,0,1-6.07-1.58,3.62,3.62,0,0,1-.2-.54,2.55,2.55,0,0,1,1.32-2.95c3.72-1.88,3.17-5.21,2.06-8.29Z" style="fill:#ffb573"></path><path d="M221.75,189l-4.5,4.82a15.55,15.55,0,0,1,.7,2.39c1.84-.49,4.49-2.5,4.46-4.49A8,8,0,0,0,221.75,189Z" style="opacity:0.2;isolation:isolate"></path><path d="M228.61,178.5c-1.68,7.24-2.23,10.35-6.56,13.48-5.42,3.92-11,3-14.07-2.6a13,13,0,0,1-1.45-6.55c.31-10.39,2.9-15,10-16.62a10.13,10.13,0,0,1,12.1,12.29Z" style="fill:#ffb573"></path><path d="M224.16,189.49a5.66,5.66,0,0,0,.56-2.79c-.13-.48,2.28-3.46,2.7-3.73a1.38,1.38,0,0,1,1-.14c.29.13.31.52.3.83-.05,1.09-2,5.87-3.39,6.06C224.29,189.86,225.34,193.52,224.16,189.49Z" style="fill:#263238"></path><path d="M218.86,169.62a12,12,0,0,1,2.65,5,36,36,0,0,1,1,5.66,5.3,5.3,0,0,1,2.45,4.77,3.77,3.77,0,0,1,4.69-2.5,12.34,12.34,0,0,0-12.83-16.76c-1,.12-2.19.52-2.44,1.51a8.39,8.39,0,0,0,2.38.94A5.17,5.17,0,0,1,218.86,169.62Z" style="fill:#263238"></path><path d="M213.66,186.85a6.46,6.46,0,0,1-.86.24.17.17,0,0,1-.21-.12h0a.19.19,0,0,1,.15-.2,5.05,5.05,0,0,0,3.51-2.53.2.2,0,0,1,.24-.1.16.16,0,0,1,.09.22A5.22,5.22,0,0,1,213.66,186.85Z" style="fill:#263238"></path><path d="M211.52,180.58a15.87,15.87,0,0,1-1.91,4,2.6,2.6,0,0,0,2.17.28Z" style="fill:#ed893e"></path><path d="M228.17,179.36a29.71,29.71,0,0,1-21.51,4.16c-.37,3,0,5.79,2,8a10.52,10.52,0,0,0,8,3.43c3.43-.07,6.58-3.22,9-5.7A11,11,0,0,0,228.17,179.36Z" style="fill:#fff"></path><path d="M229.37,184.58a5.44,5.44,0,0,1-3.12,2.74c-1.81.6-2.8-1-2.37-2.75.38-1.58,1.78-3.79,3.64-3.63a2.45,2.45,0,0,1,1.85,3.64Z" style="fill:#ffb573"></path><path d="M210.82,398.29c-1.12-.08-2.18-.33-2.47-.86a.77.77,0,0,1,.1-.89,1,1,0,0,1,.7-.42c1.48-.27,4.35,1.71,4.47,1.8a.22.22,0,0,1,.09.22.2.2,0,0,1-.18.16A14.43,14.43,0,0,1,210.82,398.29Zm-1.22-1.81a2.84,2.84,0,0,0-.41,0,.67.67,0,0,0-.42.26c-.17.24-.13.37-.09.45.36.6,2.56.8,4.18.72a8.88,8.88,0,0,0-3.26-1.42Z" style="fill:#000000"></path><path d="M213.47,398.29l-.09,0c-1-.56-2.92-2.61-2.67-3.57a.76.76,0,0,1,.82-.52,1.49,1.49,0,0,1,1.12.39c1,1,1.06,3.36,1.06,3.46a.2.2,0,0,1-.07.2Zm-1.81-3.7-.12,0c-.37,0-.4.16-.42.21-.19.55,1.14,2.16,2.15,2.91a4.81,4.81,0,0,0-.91-2.77A1,1,0,0,0,211.66,394.59Z" style="fill:#000000"></path><path d="M215,396.81l8.42.29a.74.74,0,0,1,.71.63l1.41,7c.09.72-1.28,1.48-1.36,1.48-5.17.32-16.25.17-19.9,0s-3.93-3.84-2.42-4.09c6.78-1.1,9.42-3,11.66-4.79A2.12,2.12,0,0,1,215,396.81Z" style="fill:#263238"></path><polygon points="154.58 203.68 153.37 203.23 154.59 202.69 164.81 202.78 164.8 203.77 154.58 203.68" style="fill:#263238"></polygon><path d="M166,205.15l-2.6-2.47-3.69,0,.11.86a1.18,1.18,0,0,0,.7.69c1.16.55,3.9,2.12,3.9,2.12Z" style="fill:#ffb573"></path><path d="M211.3,337.8l.27,6.32L225.19,346s-.49-5.59-.94-6.61S211.3,337.8,211.3,337.8Z" style="opacity:0.2"></path><path d="M208.59,334.66c-.09,0,.72,6.75.72,6.75l17.29-.16.06-6.19Z" style="fill:#000000"></path><path d="M208.59,334.66c-.09,0,.72,6.75.72,6.75l17.29-.16.06-6.19Z" style="fill:#fff;opacity:0.6000000000000001"></path><path d="M215.74,179.61c0,.6-.36,1.08-.76,1.07s-.69-.51-.66-1.12.36-1.08.75-1.07S215.76,179,215.74,179.61Z" style="fill:#263238"></path><path d="M209.19,179.36c0,.6-.36,1.08-.75,1.07s-.69-.52-.67-1.12.36-1.08.75-1.07S209.22,178.75,209.19,179.36Z" style="fill:#263238"></path><path d="M208.69,178.28l-1.43-.47S208,179,208.69,178.28Z" style="fill:#263238"></path><path d="M216.91,177.14a.35.35,0,0,0,.14-.06.3.3,0,0,0,0-.42h0a3.43,3.43,0,0,0-2.9-1.29.3.3,0,0,0-.26.33.28.28,0,0,0,.32.25,2.92,2.92,0,0,1,2.4,1.09A.28.28,0,0,0,216.91,177.14Z" style="fill:#263238"></path><path d="M206.83,176.34a.3.3,0,0,0,.14-.06,2.87,2.87,0,0,1,2.55-.58.3.3,0,0,0,.38-.18h0a.3.3,0,0,0-.19-.37,3.49,3.49,0,0,0-3.11.67.29.29,0,0,0-.06.41.28.28,0,0,0,.29.12Z" style="fill:#263238"></path><path d="M215.24,178.53l-1.43-.46S214.51,179.22,215.24,178.53Z" style="fill:#263238"></path><path d="M304,377.85a4.26,4.26,0,0,1-5,3.85L261.7,343.06l-4.16-4.15,0,0-.1-.15a12.07,12.07,0,0,1-.82-1.37c-3.49-6.65,1.08-11.49,7.26-9a15.75,15.75,0,0,1,1.56.75,19.66,19.66,0,0,1,4.82,3.9s0,0,0,0a37.67,37.67,0,0,1,2.6,3.14c.45.58.88,1.18,1.33,1.77C282.57,349.43,296.05,368.69,304,377.85Z" style="fill:#ffb573"></path><path d="M241.86,297a291.7,291.7,0,0,0,13,38.51s15.45.21,15.67-4.24c.31-6.36-5.4-108.06-31.29-75.28C234,262.56,239.52,288.28,241.86,297Z" style="fill:#000000"></path><path d="M241.86,297a291.7,291.7,0,0,0,13,38.51s15.45.21,15.67-4.24c.31-6.36-5.4-108.06-31.29-75.28C234,262.56,239.52,288.28,241.86,297Z" style="opacity:0.6000000000000001"></path><path d="M228,217.78c4.05,10.38,18.25,10,18.25,10,1.29,9,14.38,64.69,14.38,64.69-27.26,23.86-49.61,8.93-48.82,7.54,5.37-39.14.26-62.58-3.25-69.21h0c2-.77,2.44-13,2.44-13Z" style="fill:#000000"></path><path d="M296.22,385.23c-.83.94-1.77,1.72-2.43,1.62a.87.87,0,0,1-.74-.69,1.12,1.12,0,0,1,.1-.91c.76-1.5,4.47-2.72,4.63-2.77a.26.26,0,0,1,.26.07.29.29,0,0,1,0,.27A16,16,0,0,1,296.22,385.23Zm-2.44-.13a1.64,1.64,0,0,0-.26.37.64.64,0,0,0-.06.54c.1.32.24.37.34.39.78.08,2.44-1.74,3.46-3.25a10.38,10.38,0,0,0-3.47,2Z" style="fill:#000000"></path><path d="M298,382.87l-.08.06c-1.18.52-4.3.84-5,0a.84.84,0,0,1,.09-1.08,1.72,1.72,0,0,1,1.11-.73c1.6-.24,3.7,1.33,3.8,1.39a.24.24,0,0,1,.13.19Zm-4.52-.89-.12.08c-.23.33-.13.46-.1.51.36.55,2.7.45,4.05.05a5.34,5.34,0,0,0-3.09-1.06A1.16,1.16,0,0,0,293.48,382Z" style="fill:#000000"></path><path d="M297.32,380l4.83-4.91c1.46-.41,7.9,4.11,7.9,4.11.7.4.45,2.15.39,2.21-3.2,4.83-8.93,11.91-11.57,15s-6.08.91-5.28-.6c3.6-6.79,3.7-10.42,3.6-13.63C297.15,381.56,296.94,380.43,297.32,380Z" style="fill:#263238"></path><path d="M272.86,336.14h0l-11.15,6.92-4.16-4.15-.14-.19-.94-1.3.12-.07c1.21-.75,10.84-6.68,11.71-6.08a12.57,12.57,0,0,1,1.93,1.7s0,0,0,0A39,39,0,0,1,272.86,336.14Z" style="opacity:0.2"></path><path d="M252.45,332.69c-.09,0,2.87,7.08,2.87,7.08L274,334.25l-1.86-6.73Z" style="fill:#000000"></path><path d="M252.45,332.69c-.09,0,2.87,7.08,2.87,7.08L274,334.25l-1.86-6.73Z" style="fill:#fff;opacity:0.6000000000000001"></path><path d="M212,169.6a13.06,13.06,0,0,0,3.79,1.56,4.59,4.59,0,0,1,3.05,2.54c.35,1.11,0,2.31,0,3.46a4.31,4.31,0,0,0,3.4,3.8,10.29,10.29,0,0,0-1.08,2.33,2.89,2.89,0,0,0,.11,2.34,9.38,9.38,0,0,0,1.44,1.52,1.69,1.69,0,0,1,.45,1.9,3.73,3.73,0,0,0,.55-3.85c-.23-.38,1.9-4,1.89-7.79a3,3,0,0,0-.82-1.88,4.93,4.93,0,0,0-1.47-.87,2,2,0,0,1-1.17-1.19,2.06,2.06,0,0,1,.23-1.28c.18-.41.67-.91.4-1.26-2.5-3.35-5.68-4.05-8.23-5.15a4.92,4.92,0,0,0-2-.54,1.9,1.9,0,0,0-1.73.9h0a3.28,3.28,0,0,0,1.07,3.43Z" style="fill:#263238"></path><path d="M214.39,219.64a1.17,1.17,0,1,1-1.17-1.17A1.17,1.17,0,0,1,214.39,219.64Z" style="fill:#fff"></path><path d="M190.63,198.56c.51,0,.94.12,1,.31l.88,23.53-1.94.07-.82-23.53c0-.19.42-.36.93-.38Z" style="fill:#263238"></path><rect x="184.76" y="199.16" width="12.02" height="6.91" rx="2.5" transform="translate(-7.13 6.96) rotate(-2.05)" style="fill:#000000"></rect><path d="M239.18,207.58c-4.2-2-2.49-3.06-12.36,10-.78,1-6.94,8.31-6.94,8.31l-19.53-9.11s-1,3.4-2.42,4.87c0,0,10.35,7.2,18.84,12.14s13.72-4.63,16.55-8.25C239.09,218.16,245.35,210.54,239.18,207.58Z" style="fill:#263238"></path><path d="M201,217.07s-6.8-4.35-6.93-4-2.26,6.54-1.88,6.66,6.92,2.52,6.92,2.52A4.3,4.3,0,0,0,201,217.07Z" style="fill:#ffb573"></path><path d="M192.17,219.76l1.88-6.66-4.71,1.05a2,2,0,0,0-1.56,2v1.16a2,2,0,0,0,1.61,1.94Z" style="fill:#ffb573"></path><path d="M217.15,248.71s1,14.09.92,17.38c0,0,13.17,6.58,13.46,5.59s8.95-7.2,8.95-7.2L236.81,247S227.49,254.69,217.15,248.71Z" style="opacity:0.2;isolation:isolate"></path></g><g id="freepik--Window--inject-66"><path d="M333.08,293v.78h95.55V293Zm-19.58,0c0,.26-.05.52-.08.78h5.88c0-.26.06-.52.08-.78Zm19.58,0v.78h95.55V293Zm-19.58,0c0,.26-.05.52-.08.78h5.88c0-.26.06-.52.08-.78Zm19.58,0v.78h95.55V293Zm-19.58,0c0,.26-.05.52-.08.78h5.88c0-.26.06-.52.08-.78Zm19.58,0v.78h95.55V293Zm0,0v.78h95.55V293Zm0,0v.78h95.55V293Zm-49-174.92V301H438V118.11Zm8,174.92V126.11H430V293Zm41,0v.78h95.55V293Zm0,0v.78h95.55V293Zm0,0v.78h95.55V293Zm-19.58,0c0,.26-.05.52-.08.78h5.88c0-.26.06-.52.08-.78Zm19.58,0v.78h95.55V293Zm-19.58,0c0,.26-.05.52-.08.78h5.88c0-.26.06-.52.08-.78Zm19.58,0v.78h95.55V293Zm-19.58,0c0,.26-.05.52-.08.78h5.88c0-.26.06-.52.08-.78Zm19.58,0v.78h95.55V293Z" style="fill:#000000"></path><path d="M292.64,176.4h0a8.59,8.59,0,0,1-8.59-8.6V140.15h17.19V167.8A8.6,8.6,0,0,1,292.64,176.4Z" style="fill:#000000"></path><path d="M292.64,176.4h0a8.59,8.59,0,0,1-8.59-8.6V140.15h17.19V167.8A8.6,8.6,0,0,1,292.64,176.4Z" style="fill:#fff;opacity:0.4"></path><path d="M309.72,176.4h0a8.6,8.6,0,0,1-8.6-8.6V140.15h17.2V167.8A8.6,8.6,0,0,1,309.72,176.4Z" style="fill:#000000"></path><path d="M326.8,176.4h0a8.6,8.6,0,0,1-8.6-8.6V140.15h17.19V167.8A8.59,8.59,0,0,1,326.8,176.4Z" style="fill:#000000"></path><path d="M326.8,176.4h0a8.6,8.6,0,0,1-8.6-8.6V140.15h17.19V167.8A8.59,8.59,0,0,1,326.8,176.4Z" style="fill:#fff;opacity:0.4"></path><path d="M343.88,176.4h0a8.6,8.6,0,0,1-8.6-8.6V140.15h17.19V167.8A8.6,8.6,0,0,1,343.88,176.4Z" style="fill:#000000"></path><path d="M361,176.4h0a8.6,8.6,0,0,1-8.59-8.6V140.15h17.19V167.8A8.6,8.6,0,0,1,361,176.4Z" style="fill:#000000"></path><path d="M361,176.4h0a8.6,8.6,0,0,1-8.6-8.6V140.15h17.19V167.8A8.59,8.59,0,0,1,361,176.4Z" style="fill:#fff;opacity:0.4"></path><path d="M378,176.4h0a8.6,8.6,0,0,1-8.59-8.6V140.15h17.19V167.8A8.6,8.6,0,0,1,378,176.4Z" style="fill:#000000"></path><path d="M395.11,176.4h0a8.59,8.59,0,0,1-8.59-8.6V140.15h17.19V167.8A8.6,8.6,0,0,1,395.11,176.4Z" style="fill:#000000"></path><path d="M395.14,176.4h0a8.6,8.6,0,0,1-8.6-8.6V140.15h17.19V167.8A8.6,8.6,0,0,1,395.14,176.4Z" style="fill:#fff;opacity:0.4"></path><path d="M412.19,176.4h0a8.6,8.6,0,0,1-8.6-8.6V140.15h17.2V167.8A8.6,8.6,0,0,1,412.19,176.4Z" style="fill:#000000"></path><path d="M429.27,176.4h0a8.6,8.6,0,0,1-8.6-8.6V140.15h17.19V167.8A8.59,8.59,0,0,1,429.27,176.4Z" style="fill:#000000"></path><path d="M429.28,176.4h0a8.59,8.59,0,0,1-8.59-8.6V140.15h17.19V167.8A8.6,8.6,0,0,1,429.28,176.4Z" style="fill:#fff;opacity:0.4"></path><rect x="284.05" y="94" width="17.08" height="46.15" style="fill:#000000"></rect><rect x="284.05" y="94" width="17.08" height="46.15" style="fill:#fff;opacity:0.6000000000000001"></rect><rect x="301.04" y="94" width="17.08" height="46.15" style="fill:#000000"></rect><rect x="301.04" y="94" width="17.08" height="46.15" style="fill:#fff;opacity:0.1"></rect><rect x="318.17" y="94" width="17.08" height="46.15" style="fill:#000000"></rect><rect x="318.17" y="94" width="17.08" height="46.15" style="fill:#fff;opacity:0.6000000000000001"></rect><rect x="335.35" y="94" width="17.08" height="46.15" style="fill:#000000"></rect><rect x="335.35" y="94" width="17.08" height="46.15" style="fill:#fff;opacity:0.1"></rect><rect x="352.49" y="94" width="17.08" height="46.15" style="fill:#000000"></rect><rect x="352.49" y="94" width="17.08" height="46.15" style="fill:#fff;opacity:0.6000000000000001"></rect><rect x="369.48" y="94" width="17.08" height="46.15" style="fill:#000000"></rect><rect x="369.48" y="94" width="17.08" height="46.15" style="fill:#fff;opacity:0.1"></rect><rect x="386.62" y="94" width="17.08" height="46.15" style="fill:#000000"></rect><rect x="386.62" y="94" width="17.08" height="46.15" style="fill:#fff;opacity:0.6000000000000001"></rect><rect x="403.61" y="94" width="17.08" height="46.15" style="fill:#000000"></rect><rect x="403.61" y="94" width="17.08" height="46.15" style="fill:#fff;opacity:0.1"></rect><rect x="420.75" y="94" width="17.08" height="46.15" style="fill:#000000"></rect><rect x="420.75" y="94" width="17.08" height="46.15" style="fill:#fff;opacity:0.6000000000000001"></rect></g></svg>